<svg width="23.47" height="23.47" viewBox="0 0 25 25" fill="none" xmlns="http://www.w3.org/2000/svg">
<path d="M12.3906 0.587891C10.0698 0.587891 7.80107 1.2761 5.87136 2.56549C3.94165 3.85488 2.43763 5.68754 1.54948 7.83171C0.661334 9.97589 0.428955 12.3353 0.881728 14.6115C1.3345 16.8878 2.45209 18.9786 4.09317 20.6197C5.73426 22.2608 7.82512 23.3784 10.1014 23.8312C12.3776 24.2839 14.737 24.0516 16.8812 23.1634C19.0254 22.2753 20.858 20.7712 22.1474 18.8415C23.4368 16.9118 24.125 14.6431 24.125 12.3223C24.1215 9.21117 22.8841 6.22849 20.6843 4.02862C18.4844 1.82875 15.5017 0.591342 12.3906 0.587891ZM13.6944 21.3545V15.3645H15.8675C16.2133 15.3645 16.5449 15.2271 16.7894 14.9826C17.0339 14.7381 17.1713 14.4065 17.1713 14.0607C17.1713 13.7149 17.0339 13.3833 16.7894 13.1388C16.5449 12.8942 16.2133 12.7569 15.8675 12.7569H13.6944V10.5838C13.6944 10.238 13.8318 9.90641 14.0763 9.6619C14.3208 9.41739 14.6525 9.28002 14.9983 9.28002H16.7367C17.0825 9.28002 17.4141 9.14265 17.6586 8.89814C17.9031 8.65363 18.0405 8.32199 18.0405 7.9762C18.0405 7.6304 17.9031 7.29877 17.6586 7.05426C17.4141 6.80975 17.0825 6.67238 16.7367 6.67238H14.9983C13.9609 6.67238 12.966 7.08448 12.2324 7.81802C11.4989 8.55156 11.0868 9.54645 11.0868 10.5838V12.7569H8.91378C8.56798 12.7569 8.23635 12.8942 7.99184 13.1388C7.74732 13.3833 7.60996 13.7149 7.60996 14.0607C7.60996 14.4065 7.74732 14.7381 7.99184 14.9826C8.23635 15.2271 8.56798 15.3645 8.91378 15.3645H11.0868V21.3545C8.80305 21.0248 6.72892 19.8424 5.28182 18.0452C3.83472 16.2479 3.12209 13.9693 3.28733 11.6678C3.45257 9.36626 4.48342 7.21277 6.17242 5.64069C7.86143 4.0686 10.0832 3.19461 12.3906 3.19461C14.698 3.19461 16.9198 4.0686 18.6088 5.64069C20.2978 7.21277 21.3287 9.36626 21.4939 11.6678C21.6592 13.9693 20.9465 16.2479 19.4994 18.0452C18.0523 19.8424 15.9782 21.0248 13.6944 21.3545Z" fill="#111418"/>
</svg>
