<svg width="19.18" height="19.06" viewBox="0 0 20 20" fill="none" xmlns="http://www.w3.org/2000/svg">
<path d="M19.3223 6.47325V17.0823C19.3217 17.6473 19.097 18.1891 18.6974 18.5886C18.2979 18.9882 17.7561 19.2129 17.1911 19.2135H13.6391C13.2623 19.2135 12.9009 19.0638 12.6345 18.7973C12.368 18.5309 12.2183 18.1695 12.2183 17.7927V13.8855C12.2183 13.6971 12.1435 13.5164 12.0102 13.3832C11.877 13.25 11.6963 13.1751 11.5079 13.1751H7.95595C7.76754 13.1751 7.58685 13.25 7.45362 13.3832C7.3204 13.5164 7.24555 13.6971 7.24555 13.8855V17.7927C7.24555 18.1695 7.09586 18.5309 6.82941 18.7973C6.56296 19.0638 6.20158 19.2135 5.82476 19.2135H2.27279C1.70773 19.2129 1.16599 18.9882 0.766434 18.5886C0.366882 18.1891 0.142166 17.6473 0.141602 17.0823V6.47325C0.142133 6.22791 0.205887 5.98684 0.326712 5.77331C0.447537 5.55979 0.621355 5.381 0.831395 5.25421L9.00094 0.352485C9.22179 0.219927 9.47453 0.149902 9.73211 0.149902C9.98969 0.149902 10.2424 0.219927 10.4633 0.352485L18.6328 5.25421C18.8428 5.38105 19.0165 5.55985 19.1373 5.77337C19.2581 5.9869 19.3218 6.22794 19.3223 6.47325Z" fill="#FF5733"/>
</svg>
