<svg width="24" height="24" viewBox="0 0 24 24" fill="none" xmlns="http://www.w3.org/2000/svg">
<g clip-path="url(#clip0_236_121)">
<path fill-rule="evenodd" clip-rule="evenodd" d="M12.0005 2.55599C15.0763 2.55599 15.4411 2.56751 16.6555 2.62319C17.7787 2.67503 18.3883 2.86223 18.7944 3.01967C19.332 3.22895 19.716 3.47855 20.1192 3.88175C20.5224 4.28495 20.772 4.66895 20.9813 5.20655C21.1387 5.61263 21.3269 6.22223 21.3777 7.34543C21.4334 8.55983 21.4449 8.92463 21.4449 12.0005C21.4449 15.0763 21.4334 15.4411 21.3777 16.6555C21.3259 17.7787 21.1387 18.3883 20.9813 18.7944C20.772 19.332 20.5224 19.716 20.1192 20.1192C19.716 20.5224 19.332 20.772 18.7944 20.9813C18.3883 21.1387 17.7787 21.3269 16.6555 21.3777C15.4411 21.4334 15.0763 21.4449 12.0005 21.4449C8.92463 21.4449 8.55983 21.4334 7.34543 21.3777C6.22223 21.3269 5.61263 21.1387 5.20655 20.9813C4.70607 20.7965 4.25337 20.5019 3.88175 20.1192C3.47855 19.716 3.22895 19.332 3.01967 18.7944C2.86223 18.3883 2.67407 17.7787 2.62319 16.6555C2.56751 15.4411 2.55599 15.0763 2.55599 12.0005C2.55599 8.92463 2.56751 8.55983 2.62319 7.34543C2.67407 6.22223 2.86223 5.61263 3.01967 5.20655C3.22895 4.66895 3.47855 4.28495 3.88175 3.88175C4.28495 3.47855 4.66895 3.22895 5.20655 3.01967C5.61263 2.86223 6.22223 2.67407 7.34543 2.62319C8.55983 2.56751 8.92463 2.55599 12.0005 2.55599ZM12.0005 0.480469C8.87087 0.480469 8.47919 0.493909 7.25039 0.549589C6.02447 0.606229 5.18639 0.800149 4.45391 1.08527C3.68539 1.37455 2.98921 1.82797 2.41391 2.41391C1.82785 2.98949 1.37443 3.68601 1.08527 4.45487C0.800149 5.18735 0.605269 6.02447 0.549589 7.25039C0.493909 8.47919 0.480469 8.87183 0.480469 12.0005C0.480469 15.1301 0.493909 15.5217 0.549589 16.7505C0.605269 17.9765 0.800149 18.8145 1.08527 19.547C1.37999 20.3045 1.77359 20.9467 2.41391 21.587C2.98949 22.1731 3.68601 22.6265 4.45487 22.9157C5.18831 23.2008 6.02543 23.3957 7.25135 23.4513C8.48015 23.507 8.87279 23.5205 12.0014 23.5205C15.1301 23.5205 15.5227 23.507 16.7515 23.4513C17.9774 23.3957 18.8155 23.2008 19.547 22.9157C20.3159 22.6265 21.0124 22.1731 21.588 21.587C22.1739 21.0117 22.6273 20.3155 22.9166 19.547C23.2017 18.8136 23.3966 17.9765 23.4523 16.7505C23.508 15.5217 23.5214 15.1291 23.5214 12.0005C23.5214 8.87183 23.508 8.47919 23.4523 7.25039C23.3957 6.02447 23.2017 5.18639 22.9166 4.45487C22.6275 3.68601 22.174 2.98949 21.588 2.41391C21.0121 1.82773 20.3153 1.3743 19.5461 1.08527C18.8136 0.800149 17.9765 0.605269 16.7505 0.549589C15.5217 0.493909 15.1291 0.480469 12.0005 0.480469ZM12.0005 6.08495C11.2236 6.08495 10.4544 6.23796 9.7367 6.53524C9.01899 6.83252 8.36687 7.26826 7.81756 7.81756C7.26826 8.36687 6.83252 9.01899 6.53524 9.7367C6.23796 10.4544 6.08495 11.2236 6.08495 12.0005C6.08495 12.7773 6.23796 13.5465 6.53524 14.2642C6.83252 14.9819 7.26826 15.6341 7.81756 16.1834C8.36687 16.7327 9.01899 17.1684 9.7367 17.4657C10.4544 17.763 11.2236 17.916 12.0005 17.916C13.5694 17.916 15.074 17.2927 16.1834 16.1834C17.2927 15.074 17.916 13.5694 17.916 12.0005C17.916 10.4316 17.2927 8.92694 16.1834 7.81756C15.074 6.70819 13.5694 6.08495 12.0005 6.08495ZM12.0005 15.8405C10.982 15.8405 10.0053 15.4359 9.28518 14.7158C8.56504 13.9956 8.16047 13.0189 8.16047 12.0005C8.16047 10.982 8.56504 10.0053 9.28518 9.28518C10.0053 8.56504 10.982 8.16047 12.0005 8.16047C13.0189 8.16047 13.9956 8.56504 14.7158 9.28518C15.4359 10.0053 15.8405 10.982 15.8405 12.0005C15.8405 13.0189 15.4359 13.9956 14.7158 14.7158C13.9956 15.4359 13.0189 15.8405 12.0005 15.8405ZM19.5326 5.85071C19.5326 6.03225 19.4969 6.21201 19.4274 6.37973C19.3579 6.54745 19.2561 6.69985 19.1277 6.82821C18.9994 6.95658 18.847 7.05841 18.6792 7.12788C18.5115 7.19735 18.3318 7.23311 18.1502 7.23311C17.9687 7.23311 17.7889 7.19735 17.6212 7.12788C17.4535 7.05841 17.3011 6.95658 17.1727 6.82821C17.0444 6.69985 16.9425 6.54745 16.8731 6.37973C16.8036 6.21201 16.7678 6.03225 16.7678 5.85071C16.7678 5.48407 16.9135 5.13245 17.1727 4.8732C17.432 4.61395 17.7836 4.46831 18.1502 4.46831C18.5169 4.46831 18.8685 4.61395 19.1277 4.8732C19.387 5.13245 19.5326 5.48407 19.5326 5.85071Z" fill="#111418"/>
</g>
<defs>
<clipPath id="clip0_236_121">
<rect width="24" height="24" fill="white"/>
</clipPath>
</defs>
</svg>
