<svg width="24" height="24" viewBox="0 0 24 24" fill="none" xmlns="http://www.w3.org/2000/svg">
<g clip-path="url(#clip0_236_114)">
<mask id="mask0_236_114" style="mask-type:luminance" maskUnits="userSpaceOnUse" x="0" y="0" width="24" height="24">
<path d="M0 0H24V24H0V0Z" fill="white"/>
</mask>
<g mask="url(#mask0_236_114)">
<path d="M7.064 0C0.5135 0 0 0.5125 0 7.064V16.936C0 23.487 0.5135 24 7.064 24H16.936C23.487 24 24 23.4875 24 16.936V7.064C24 0.5125 23.4875 0 16.936 0H7.064ZM5.501 2.4H18.499C21.375 2.4 21.6 2.625 21.6 5.501V18.499C21.6 21.375 21.3745 21.6 18.499 21.6H5.501C2.625 21.6 2.4 21.3745 2.4 18.499V5.501C2.4 2.625 2.625 2.4 5.501 2.4ZM6.301 3.9025C6.06622 3.89855 5.83301 3.94139 5.61495 4.0285C5.3969 4.11562 5.19837 4.24527 5.03095 4.40991C4.86352 4.57454 4.73055 4.77086 4.63978 4.98742C4.54901 5.20398 4.50226 5.43644 4.50226 5.67125C4.50226 5.90606 4.54901 6.13852 4.63978 6.35508C4.73055 6.57164 4.86352 6.76796 5.03095 6.93259C5.19837 7.09723 5.3969 7.22688 5.61495 7.314C5.83301 7.40111 6.06622 7.44395 6.301 7.44C6.76119 7.4266 7.19803 7.23437 7.51879 6.90413C7.83956 6.57389 8.01899 6.13163 8.01899 5.67125C8.01899 5.21087 7.83956 4.76861 7.51879 4.43837C7.19803 4.10813 6.76119 3.9159 6.301 3.9025ZM15.56 8.5935C14.084 8.5935 13.094 9.4035 12.689 10.1705H12.647V8.837H9.737V18.6H12.769V13.77C12.769 12.4955 13.0125 11.263 14.591 11.263C16.1475 11.263 16.167 12.7205 16.167 13.853V18.6H19.2V13.245C19.2 10.615 18.633 8.5935 15.56 8.5935ZM4.7835 8.837V18.6H7.8175V8.837H4.7835Z" fill="#111418"/>
</g>
</g>
<defs>
<clipPath id="clip0_236_114">
<rect width="24" height="24" fill="white"/>
</clipPath>
</defs>
</svg>
