<svg width="13.89" height="21.61" viewBox="0 0 15 23" fill="none" xmlns="http://www.w3.org/2000/svg">
<path d="M12.0875 0.456055H2.82532C2.21119 0.456055 1.62223 0.700014 1.18798 1.13426C0.753725 1.56851 0.509766 2.15748 0.509766 2.77161V19.7523C0.509766 20.3664 0.753725 20.9554 1.18798 21.3897C1.62223 21.8239 2.21119 22.0679 2.82532 22.0679H12.0875C12.7016 22.0679 13.2906 21.8239 13.7249 21.3897C14.1591 20.9554 14.4031 20.3664 14.4031 19.7523V2.77161C14.4031 2.15748 14.1591 1.56851 13.7249 1.13426C13.2906 0.700014 12.7016 0.456055 12.0875 0.456055ZM7.45642 5.85901C7.22743 5.85901 7.00359 5.79111 6.8132 5.66389C6.6228 5.53667 6.4744 5.35585 6.38678 5.14429C6.29915 4.93274 6.27622 4.69995 6.32089 4.47536C6.36556 4.25078 6.47583 4.04448 6.63775 3.88256C6.79967 3.72064 7.00596 3.61038 7.23055 3.5657C7.45514 3.52103 7.68793 3.54396 7.89948 3.63159C8.11104 3.71922 8.29186 3.86761 8.41908 4.05801C8.54629 4.2484 8.6142 4.47225 8.6142 4.70123C8.6142 5.00829 8.49222 5.30278 8.27509 5.5199C8.05797 5.73703 7.76348 5.85901 7.45642 5.85901Z" fill="#FF5733"/>
</svg>
