<svg width="22" height="22" viewBox="0 0 23 23" fill="none" xmlns="http://www.w3.org/2000/svg">
<path d="M11.7295 12.9688C12.0855 12.9688 12.374 12.6802 12.374 12.3242C12.374 11.9683 12.0855 11.6797 11.7295 11.6797C11.3735 11.6797 11.085 11.9683 11.085 12.3242C11.085 12.6802 11.3735 12.9688 11.7295 12.9688Z" fill="#FF5733"/>
<path d="M11.7295 0.679688C5.6727 0.679688 0.729492 5.6232 0.729492 11.6797C0.729492 17.7366 5.673 22.6797 11.7295 22.6797C17.7864 22.6797 22.7295 17.7362 22.7295 11.6797C22.7295 5.6229 17.786 0.679688 11.7295 0.679688ZM11.7295 3.30078C15.9113 3.30078 19.3873 6.38027 20.0092 10.3906H17.774C16.3568 10.3906 15.0104 9.82193 14.0799 8.83039C12.808 7.47489 10.6511 7.47446 9.3791 8.83034C8.44861 9.82193 7.10214 10.3906 5.68491 10.3906H3.44976C4.07164 6.38027 7.54764 3.30078 11.7295 3.30078ZM11.7295 14.2578C10.6634 14.2578 9.7959 13.3904 9.7959 12.3242C9.7959 11.258 10.6634 10.3906 11.7295 10.3906C12.7957 10.3906 13.6631 11.258 13.6631 12.3242C13.6631 13.3904 12.7957 14.2578 11.7295 14.2578ZM3.92723 14.7346C4.665 14.4452 5.19773 14.2578 5.92871 14.2578C8.27859 14.2578 10.1061 16.3519 9.75211 18.7046H9.75061C9.69802 19.0648 9.59455 19.4137 9.44532 19.7421C6.92052 19.0258 4.87731 17.1527 3.92723 14.7346ZM14.0142 19.742C13.8609 19.4049 13.7596 19.056 13.7084 18.7046H13.7069C13.2944 15.963 15.8253 13.7009 18.4486 14.3676C18.7252 14.4379 19.0713 14.554 19.5317 14.7347C18.5817 17.1526 16.5387 19.0256 14.0142 19.742Z" fill="#FF5733"/>
</svg>
