<svg width="25.29" height="25.29" viewBox="0 0 26 26" fill="none" xmlns="http://www.w3.org/2000/svg">
<path d="M21.4289 6.41333H14.6422L18.036 3.02048C18.1844 2.87217 18.2677 2.67101 18.2677 2.46126C18.2677 2.25152 18.1844 2.05036 18.036 1.90205C17.8877 1.75373 17.6866 1.67041 17.4768 1.67041C17.2671 1.67041 17.0659 1.75373 16.9176 1.90205L12.7344 6.08629L8.55109 1.90205C8.47765 1.82861 8.39047 1.77035 8.29452 1.73061C8.19857 1.69087 8.09573 1.67041 7.99187 1.67041C7.88802 1.67041 7.78518 1.69087 7.68923 1.73061C7.59328 1.77035 7.50609 1.82861 7.43266 1.90205C7.28434 2.05036 7.20102 2.25152 7.20102 2.46126C7.20102 2.67101 7.28434 2.87217 7.43266 3.02048L10.8265 6.41333H4.03981C3.62055 6.41333 3.21846 6.57988 2.922 6.87634C2.62554 7.1728 2.45898 7.57489 2.45898 7.99415V19.8503C2.45898 20.2696 2.62554 20.6717 2.922 20.9682C3.21846 21.2646 3.62055 21.4312 4.03981 21.4312H21.4289C21.8482 21.4312 22.2502 21.2646 22.5467 20.9682C22.8432 20.6717 23.0097 20.2696 23.0097 19.8503V7.99415C23.0097 7.57489 22.8432 7.1728 22.5467 6.87634C22.2502 6.57988 21.8482 6.41333 21.4289 6.41333ZM21.4289 19.8503H15.896V7.99415H21.4289V19.8503ZM19.8481 11.551C19.8481 11.7855 19.7785 12.0147 19.6483 12.2097C19.518 12.4047 19.3328 12.5566 19.1162 12.6464C18.8995 12.7361 18.6611 12.7596 18.4311 12.7138C18.2012 12.6681 17.9899 12.5552 17.8241 12.3894C17.6583 12.2236 17.5454 12.0123 17.4996 11.7823C17.4539 11.5523 17.4773 11.3139 17.5671 11.0973C17.6568 10.8807 17.8088 10.6955 18.0038 10.5652C18.1987 10.4349 18.428 10.3654 18.6624 10.3654C18.9769 10.3654 19.2785 10.4903 19.5008 10.7127C19.7232 10.935 19.8481 11.2366 19.8481 11.551ZM19.8481 16.2935C19.8481 16.528 19.7785 16.7572 19.6483 16.9522C19.518 17.1472 19.3328 17.2991 19.1162 17.3889C18.8995 17.4786 18.6611 17.5021 18.4311 17.4563C18.2012 17.4106 17.9899 17.2977 17.8241 17.1318C17.6583 16.966 17.5454 16.7548 17.4996 16.5248C17.4539 16.2948 17.4773 16.0564 17.5671 15.8398C17.6568 15.6231 17.8088 15.438 18.0038 15.3077C18.1987 15.1774 18.428 15.1079 18.6624 15.1079C18.9769 15.1079 19.2785 15.2328 19.5008 15.4551C19.7232 15.6775 19.8481 15.979 19.8481 16.2935Z" fill="#FF5733"/>
</svg>
