<svg width="26.02" height="26.02" viewBox="0 0 27 27" fill="none" xmlns="http://www.w3.org/2000/svg">
<g clip-path="url(#clip0_236_59)">
<path d="M20.4333 7.23016V20.2394C20.4333 20.6707 20.2619 21.0843 19.957 21.3893C19.652 21.6943 19.2384 21.8656 18.8071 21.8656H17.181C16.7497 21.8656 16.3361 21.6943 16.0311 21.3893C15.7261 21.0843 15.5548 20.6707 15.5548 20.2394V14.5479H10.6763V20.2394C10.6763 20.6707 10.505 21.0843 10.2 21.3893C9.89506 21.6943 9.48144 21.8656 9.05016 21.8656H7.424C6.99271 21.8656 6.57909 21.6943 6.27413 21.3893C5.96916 21.0843 5.79784 20.6707 5.79784 20.2394V7.23016C5.79784 6.79888 5.96916 6.38526 6.27413 6.08029C6.57909 5.77533 6.99271 5.604 7.424 5.604H9.05016C9.48144 5.604 9.89506 5.77533 10.2 6.08029C10.505 6.38526 10.6763 6.79888 10.6763 7.23016V12.9217H15.5548V7.23016C15.5548 6.79888 15.7261 6.38526 16.0311 6.08029C16.3361 5.77533 16.7497 5.604 17.181 5.604H18.8071C19.2384 5.604 19.652 5.77533 19.957 6.08029C20.2619 6.38526 20.4333 6.79888 20.4333 7.23016ZM3.76514 8.04324H3.3586C2.92731 8.04324 2.51369 8.21457 2.20873 8.51953C1.90377 8.8245 1.73244 9.23812 1.73244 9.6694V12.9217H0.9468C0.736686 12.9186 0.533191 12.9952 0.377251 13.1361C0.221311 13.2769 0.124495 13.4716 0.106279 13.6809C0.098894 13.7922 0.114456 13.9037 0.151997 14.0087C0.189539 14.1136 0.248258 14.2097 0.324509 14.291C0.400759 14.3723 0.492911 14.4371 0.595242 14.4813C0.697572 14.5255 0.807895 14.5481 0.919358 14.5479H1.73244V17.8002C1.73244 18.2315 1.90377 18.6451 2.20873 18.9501C2.51369 19.255 2.92731 19.4264 3.3586 19.4264H3.76514C3.87296 19.4264 3.97636 19.3835 4.05261 19.3073C4.12885 19.231 4.17168 19.1276 4.17168 19.0198V8.44978C4.17168 8.34196 4.12885 8.23856 4.05261 8.16232C3.97636 8.08607 3.87296 8.04324 3.76514 8.04324ZM26.1248 13.6809C26.1066 13.4719 26.0101 13.2776 25.8546 13.1368C25.6991 12.9959 25.4961 12.9191 25.2863 12.9217H24.4987V9.6694C24.4987 9.23812 24.3273 8.8245 24.0224 8.51953C23.7174 8.21457 23.3038 8.04324 22.8725 8.04324H22.466C22.3582 8.04324 22.2547 8.08607 22.1785 8.16232C22.1023 8.23856 22.0594 8.34196 22.0594 8.44978V19.0198C22.0594 19.1276 22.1023 19.231 22.1785 19.3073C22.2547 19.3835 22.3582 19.4264 22.466 19.4264H22.8725C23.3038 19.4264 23.7174 19.255 24.0224 18.9501C24.3273 18.6451 24.4987 18.2315 24.4987 17.8002V14.5479H25.3118C25.4232 14.5481 25.5335 14.5255 25.6359 14.4813C25.7382 14.4371 25.8304 14.3723 25.9066 14.291C25.9829 14.2097 26.0416 14.1136 26.0791 14.0087C26.1167 13.9037 26.1322 13.7922 26.1248 13.6809Z" fill="#FF5733"/>
</g>
<defs>
<clipPath id="clip0_236_59">
<rect width="26.0186" height="26.0186" fill="white" transform="translate(0.106445 0.727051)"/>
</clipPath>
</defs>
</svg>
